<svg id="Layer_3" data-name="Layer 3" xmlns="http://www.w3.org/2000/svg" viewBox="0 0 12.73 8.19"><path d="M687.21,583.77c0,.65.25,1,.67,1A1.52,1.52,0,0,0,689,584c-.12,1.66-1.19,3.08-2.33,3.08-1,0-1.57-.67-1.57-2a3.17,3.17,0,0,1,.07-.69l-.27,0a2.32,2.32,0,0,1-1.18-.29c-1,1.44-2.65,2.88-4.56,2.88a2.13,2.13,0,0,1-2.37-2,2,2,0,0,1,2-2,2.54,2.54,0,0,1,.91.18.76.76,0,0,0-.53.69c0,.37.29.64.82.64a3.69,3.69,0,0,0,2.11-1.16,1.32,1.32,0,0,0-.9-.29,2.72,2.72,0,0,0-1,.18,1.77,1.77,0,0,1,1.83-1.34,1.81,1.81,0,0,1,1.2.43,9.59,9.59,0,0,1,6.19-3.4A7.47,7.47,0,0,0,687.21,583.77Zm-5.79-2.49c-1.23,0-2-.48-2-1.23s1.09-1.2,1.8-1.2a2.51,2.51,0,0,1,1.4.33c-.52,0-.77.2-.77.44s.18.38.58.38c1.34,0,2.76-1,4.15-1a1.47,1.47,0,0,1,.42.06C685.07,579.65,683.59,581.28,681.42,581.28Zm2.92,1.9a1.62,1.62,0,0,0,1,.78,11.46,11.46,0,0,1,2.32-3.94A8.33,8.33,0,0,0,684.34,583.18Z" transform="translate(-676.8 -578.85)"/></svg>
